<svg xmlns="http://www.w3.org/2000/svg" version="1.1" viewBox="0.00 0.00 160.00 156.00" width="160.00" height="156.00">
<path fill="#026fa8" d="&#10;  M 157.4642 77.0849&#10;  A 77.36 77.20 -0.7 0 1 81.0532 155.2242&#10;  A 77.36 77.20 -0.7 0 1 2.7558 78.9751&#10;  A 77.36 77.20 -0.7 0 1 79.1668 0.8358&#10;  A 77.36 77.20 -0.7 0 1 157.4642 77.0849&#10;  Z&#10;  M 151.7573 78.6753&#10;  A 71.66 71.50 0.5 0 0 80.7239 6.5527&#10;  A 71.66 71.50 0.5 0 0 8.4427 77.4247&#10;  A 71.66 71.50 0.5 0 0 79.4761 149.5473&#10;  A 71.66 71.50 0.5 0 0 151.7573 78.6753&#10;  Z"/>
<path fill="#026fa8" d="&#10;  M 81.40 13.54&#10;  L 82.40 11.52&#10;  Q 82.62 11.09 83.10 11.04&#10;  L 83.52 10.99&#10;  Q 84.25 10.92 83.94 11.57&#10;  C 82.57 14.47 81.32 15.55 81.44 19.41&#10;  A 0.46 0.46 0.0 0 1 80.83 19.86&#10;  L 80.48 19.74&#10;  A 0.88 0.87 -74.8 0 1 79.91 18.74&#10;  C 80.44 16.13 79.05 13.93 77.87 11.76&#10;  A 0.48 0.48 0.0 0 1 78.13 11.08&#10;  L 78.46 10.95&#10;  Q 78.97 10.76 79.23 11.23&#10;  L 80.53 13.56&#10;  Q 80.98 14.37 81.40 13.54&#10;  Z"/>
<path fill="#026fa8" d="&#10;  M 71.76 13.51&#10;  L 70.27 13.00&#10;  Q 69.83 12.85 69.88 12.38&#10;  Q 69.91 12.16 70.12 12.01&#10;  Q 70.36 11.85 70.66 11.81&#10;  Q 72.75 11.51 74.90 11.29&#10;  A 0.61 0.61 0.0 0 1 75.47 12.23&#10;  Q 75.06 12.84 74.29 13.03&#10;  Q 73.56 13.21 73.65 13.95&#10;  L 74.26 19.59&#10;  Q 74.35 20.38 73.56 20.40&#10;  L 73.29 20.41&#10;  A 0.47 0.47 0.0 0 1 72.81 19.98&#10;  L 72.15 14.01&#10;  Q 72.11 13.64 71.76 13.51&#10;  Z"/>
<rect fill="#026fa8" x="-0.77" y="-4.42" transform="translate(67.58,16.86) rotate(-12.1)" width="1.54" height="8.84" rx="0.60"/>
<path fill="#026fa8" d="&#10;  M 95.8525 22.3744&#10;  A 4.59 3.53 105.9 0 1 93.7151 16.9929&#10;  A 4.59 3.53 105.9 0 1 98.3675 13.5456&#10;  A 4.59 3.53 105.9 0 1 100.5049 18.9271&#10;  A 4.59 3.53 105.9 0 1 95.8525 22.3744&#10;  Z&#10;  M 96.3080 20.8857&#10;  A 3.06 1.92 105.0 0 0 98.9546 18.4269&#10;  A 3.06 1.92 105.0 0 0 97.8920 14.9743&#10;  A 3.06 1.92 105.0 0 0 95.2454 17.4331&#10;  A 3.06 1.92 105.0 0 0 96.3080 20.8857&#10;  Z"/>
<path fill="#026fa8" d="&#10;  M 60.27 16.66&#10;  Q 61.16 17.65 62.44 17.10&#10;  Q 62.99 16.86 63.50 17.18&#10;  C 65.17 18.23 66.12 21.02 64.10 22.30&#10;  C 62.76 23.15 60.42 23.17 59.84 21.42&#10;  Q 59.17 19.40 60.97 20.53&#10;  Q 61.44 20.82 61.92 21.09&#10;  Q 62.82 21.60 63.36 20.88&#10;  A 1.24 1.23 12.4 0 0 62.11 18.93&#10;  C 58.16 19.79 57.07 14.14 61.30 13.81&#10;  Q 63.00 13.68 63.42 15.15&#10;  Q 63.93 16.99 62.45 15.78&#10;  Q 61.49 14.99 60.46 15.56&#10;  A 0.71 0.71 0.0 0 0 60.27 16.66&#10;  Z"/>
<path fill="#026fa8" d="&#10;  M 104.90 18.70&#10;  Q 104.44 20.35 106.43 20.62&#10;  A 0.67 0.66 0.6 0 1 107.00 21.20&#10;  L 107.07 21.75&#10;  A 0.44 0.44 0.0 0 1 106.48 22.22&#10;  L 104.40 21.44&#10;  Q 103.85 21.23 103.61 21.77&#10;  L 102.70 23.83&#10;  Q 102.47 24.34 101.92 24.24&#10;  L 101.57 24.18&#10;  A 0.51 0.51 0.0 0 1 101.20 23.47&#10;  L 104.28 16.55&#10;  Q 104.58 15.86 105.27 16.18&#10;  L 108.71 17.80&#10;  Q 109.65 18.24 108.79 18.83&#10;  L 108.50 19.03&#10;  A 0.61 0.61 0.0 0 1 107.80 19.02&#10;  Q 106.75 18.29 105.59 18.21&#10;  Q 105.04 18.18 104.90 18.70&#10;  Z"/>
<path fill="#026fa8" d="&#10;  M 53.38 23.09&#10;  L 54.48 25.76&#10;  A 0.32 0.31 74.5 0 1 54.24 26.19&#10;  L 53.66 26.28&#10;  A 0.65 0.64 -16.3 0 1 52.98 25.91&#10;  L 50.26 19.96&#10;  Q 49.58 18.49 51.02 17.73&#10;  Q 55.44 15.39 56.10 19.14&#10;  Q 56.22 19.84 56.03 20.62&#10;  Q 55.88 21.21 56.36 21.60&#10;  L 58.64 23.43&#10;  A 0.39 0.39 0.0 0 1 58.56 24.09&#10;  L 58.21 24.25&#10;  Q 57.57 24.54 57.01 24.12&#10;  L 54.48 22.24&#10;  A 0.72 0.72 0.0 0 0 53.38 23.09&#10;  Z&#10;  M 54.4474 18.9616&#10;  A 1.42 1.26 -34.7 0 0 52.5627 18.7341&#10;  A 1.42 1.26 -34.7 0 0 52.1126 20.5784&#10;  A 1.42 1.26 -34.7 0 0 53.9973 20.8059&#10;  A 1.42 1.26 -34.7 0 0 54.4474 18.9616&#10;  Z"/>
<path fill="#026fa8" d="&#10;  M 46.79 27.09&#10;  Q 46.91 27.54 47.21 27.87&#10;  Q 47.85 28.60 48.60 27.97&#10;  L 50.03 26.77&#10;  Q 50.52 26.36 51.07 26.69&#10;  L 51.36 26.87&#10;  A 0.59 0.59 0.0 0 1 51.37 27.87&#10;  L 48.21 29.89&#10;  Q 47.04 30.64 46.35 29.44&#10;  L 43.26 24.08&#10;  Q 42.64 23.00 43.69 22.32&#10;  L 46.43 20.59&#10;  A 0.77 0.76 57.9 0 1 47.50 20.84&#10;  L 47.64 21.08&#10;  A 0.57 0.57 0.0 0 1 47.34 21.91&#10;  Q 46.15 22.32 45.28 23.13&#10;  Q 44.81 23.57 45.09 24.16&#10;  L 45.32 24.64&#10;  A 0.70 0.70 0.0 0 0 46.36 24.91&#10;  L 48.26 23.53&#10;  A 0.56 0.55 -22.3 0 1 49.13 23.89&#10;  L 49.19 24.29&#10;  Q 49.32 25.11 48.52 25.33&#10;  Q 47.79 25.54 47.16 26.00&#10;  A 1.02 1.00 64.3 0 0 46.79 27.09&#10;  Z"/>
<path fill="#026fa8" d="&#10;  M 74.70 25.71&#10;  L 74.69 23.27&#10;  A 0.67 0.66 -0.9 0 1 75.35 22.60&#10;  L 84.79 22.54&#10;  Q 85.55 22.53 85.55 23.29&#10;  L 85.52 25.80&#10;  A 0.95 0.94 3.3 0 0 86.37 26.75&#10;  C 110.64 29.16 128.74 47.63 132.35 71.55&#10;  Q 132.51 72.59 131.45 72.59&#10;  L 123.71 72.62&#10;  Q 122.59 72.62 122.42 71.52&#10;  C 119.66 53.39 105.40 39.58 87.63 36.57&#10;  Q 84.42 36.02 85.96 38.89&#10;  Q 86.56 40.00 86.89 40.61&#10;  Q 88.33 43.29 91.21 44.27&#10;  Q 110.85 50.96 115.61 71.25&#10;  Q 115.92 72.57 114.57 72.58&#10;  L 107.46 72.64&#10;  Q 106.27 72.65 105.97 71.50&#10;  C 103.92 63.47 97.63 56.30 89.92 53.41&#10;  C 74.12 47.50 58.10 56.20 53.91 72.45&#10;  Q 53.86 72.64 53.66 72.64&#10;  Q 48.94 72.68 44.40 72.39&#10;  A 0.06 0.06 0.0 0 1 44.35 72.32&#10;  Q 48.46 52.77 66.39 45.19&#10;  Q 66.44 45.17 68.69 44.43&#10;  Q 73.58 42.84 74.67 37.32&#10;  A 0.84 0.84 0.0 0 0 73.67 36.33&#10;  C 70.36 37.01 66.85 37.68 63.78 38.99&#10;  Q 42.10 48.23 37.60 71.87&#10;  Q 37.47 72.60 36.72 72.60&#10;  L 28.70 72.62&#10;  A 0.77 0.76 3.3 0 1 27.93 71.76&#10;  Q 29.11 62.70 32.58 55.81&#10;  Q 45.29 30.63 73.95 26.58&#10;  Q 74.70 26.47 74.70 25.71&#10;  Z"/>
<path fill="#026fa8" d="&#10;  M 118.80 26.25&#10;  Q 118.09 25.52 117.91 24.51&#10;  A 0.43 0.43 0.0 0 1 118.56 24.07&#10;  Q 120.85 25.45 122.42 27.10&#10;  Q 123.65 28.39 121.89 28.18&#10;  Q 121.29 28.11 120.74 27.85&#10;  Q 120.13 27.57 119.73 28.11&#10;  L 116.46 32.51&#10;  Q 116.04 33.07 115.46 32.69&#10;  L 115.11 32.46&#10;  A 0.46 0.45 -54.6 0 1 115.00 31.79&#10;  L 118.83 26.96&#10;  Q 119.12 26.59 118.80 26.25&#10;  Z"/>
<path fill="#026fa8" d="&#10;  M 41.29 30.41&#10;  L 39.31 26.09&#10;  A 0.74 0.73 -33.9 0 1 39.48 25.26&#10;  L 39.73 25.03&#10;  A 0.54 0.54 0.0 0 1 40.59 25.22&#10;  L 43.68 32.66&#10;  A 0.96 0.95 -5.7 0 1 42.61 33.96&#10;  Q 42.31 33.91 41.88 33.64&#10;  Q 38.63 31.65 35.85 29.28&#10;  A 0.54 0.53 41.0 0 1 35.79 28.51&#10;  L 36.00 28.26&#10;  A 0.58 0.57 -52.1 0 1 36.76 28.16&#10;  L 40.75 30.86&#10;  Q 41.83 31.59 41.29 30.41&#10;  Z"/>
<path fill="#026fa8" d="&#10;  M 124.25 31.74&#10;  L 123.98 32.08&#10;  Q 123.46 32.75 124.09 33.32&#10;  L 125.79 34.86&#10;  Q 126.23 35.25 125.79 35.64&#10;  L 125.44 35.95&#10;  A 0.64 0.62 47.0 0 1 124.56 35.91&#10;  L 123.14 34.39&#10;  Q 122.53 33.75 121.86 34.33&#10;  L 121.55 34.61&#10;  Q 120.74 35.32 121.52 36.07&#10;  L 123.38 37.84&#10;  Q 123.85 38.28 123.44 38.77&#10;  L 123.24 39.00&#10;  A 0.57 0.56 41.7 0 1 122.42 39.04&#10;  L 119.33 36.04&#10;  A 0.79 0.78 -46.6 0 1 119.31 34.94&#10;  L 124.34 29.61&#10;  Q 124.74 29.19 125.17 29.58&#10;  L 127.85 32.03&#10;  A 1.04 1.03 -70.7 0 1 128.20 32.76&#10;  Q 128.28 34.33 127.04 33.42&#10;  A 1.75 1.29 80.0 0 1 126.85 33.24&#10;  Q 126.04 32.24 124.84 31.61&#10;  A 0.47 0.47 0.0 0 0 124.25 31.74&#10;  Z"/>
<rect fill="#026fa8" x="-0.77" y="-4.44" transform="translate(36.25,34.25) rotate(-44.3)" width="1.54" height="8.88" rx="0.74"/>
<path fill="#026fa8" d="&#10;  M 31.94 40.54&#10;  Q 32.56 41.68 33.83 42.42&#10;  A 0.71 0.71 0.0 0 1 34.13 43.27&#10;  L 33.99 43.65&#10;  Q 33.72 44.36 33.15 43.87&#10;  L 27.83 39.27&#10;  Q 26.02 37.71 28.41 37.69&#10;  Q 30.15 37.68 31.79 38.89&#10;  A 0.40 0.39 29.5 0 0 32.39 38.73&#10;  L 32.50 38.47&#10;  Q 32.78 37.81 32.23 37.35&#10;  L 30.14 35.58&#10;  A 0.65 0.65 0.0 0 1 30.00 34.74&#10;  L 30.22 34.37&#10;  Q 30.46 33.96 30.82 34.27&#10;  L 36.66 39.25&#10;  Q 36.99 39.53 36.91 39.96&#10;  Q 36.81 40.49 36.32 40.73&#10;  Q 35.93 40.93 35.49 40.80&#10;  Q 34.01 40.35 32.59 39.80&#10;  Q 31.25 39.27 31.94 40.54&#10;  Z"/>
<path fill="#026fa8" d="&#10;  M 126.75 42.47&#10;  Q 127.62 43.30 128.99 42.98&#10;  Q 129.71 42.81 129.55 43.54&#10;  Q 129.49 43.82 129.30 44.05&#10;  Q 128.83 44.61 128.10 44.67&#10;  C 125.95 44.83 124.35 42.77 125.10 40.78&#10;  Q 126.13 37.99 129.48 36.93&#10;  C 132.10 36.11 133.93 39.12 132.96 41.31&#10;  Q 132.66 41.99 131.93 41.73&#10;  Q 131.52 41.58 131.53 41.14&#10;  L 131.54 39.72&#10;  Q 131.54 39.16 131.11 38.80&#10;  Q 130.25 38.08 129.28 38.68&#10;  C 128.28 39.28 127.17 39.97 126.57 41.00&#10;  Q 126.09 41.83 126.75 42.47&#10;  Z"/>
<path fill="#026fa8" d="&#10;  M 28.47 48.43&#10;  Q 29.99 48.43 30.02 47.48&#10;  Q 30.05 46.59 29.30 46.11&#10;  L 24.79 43.23&#10;  A 0.66 0.66 0.0 0 1 24.60 42.30&#10;  L 24.84 41.95&#10;  A 0.45 0.45 0.0 0 1 25.43 41.83&#10;  L 30.32 44.89&#10;  Q 32.63 46.34 31.09 48.59&#10;  L 30.78 49.05&#10;  Q 29.39 51.09 27.30 49.77&#10;  L 22.54 46.76&#10;  Q 22.06 46.46 22.41 46.01&#10;  L 22.66 45.68&#10;  Q 22.96 45.29 23.39 45.55&#10;  L 27.78 48.23&#10;  A 1.44 1.42 60.8 0 0 28.47 48.43&#10;  Z"/>
<path fill="#026fa8" d="&#10;  M 135.88 48.26&#10;  L 137.68 47.25&#10;  Q 138.03 47.05 138.29 47.36&#10;  L 138.48 47.60&#10;  A 0.67 0.66 53.7 0 1 138.34 48.57&#10;  Q 135.01 50.80 131.48 52.34&#10;  A 0.42 0.42 0.0 0 1 130.91 52.08&#10;  L 130.83 51.83&#10;  A 0.78 0.78 0.0 0 1 131.29 50.86&#10;  Q 132.35 50.45 133.18 49.69&#10;  A 1.04 1.02 -24.9 0 0 133.50 48.84&#10;  Q 133.39 47.83 132.61 47.60&#10;  Q 131.82 47.36 131.05 47.91&#10;  Q 130.24 48.48 129.32 48.71&#10;  A 0.31 0.30 69.8 0 1 128.96 48.54&#10;  L 128.79 48.18&#10;  A 0.64 0.64 0.0 0 1 129.05 47.36&#10;  L 135.35 43.61&#10;  Q 135.95 43.25 136.38 43.80&#10;  L 136.61 44.08&#10;  A 0.34 0.34 0.0 0 1 136.54 44.56&#10;  L 134.33 46.24&#10;  Q 133.84 46.61 134.12 47.16&#10;  Q 134.39 47.71 134.89 48.15&#10;  A 0.86 0.85 51.0 0 0 135.88 48.26&#10;  Z"/>
<path fill="#026fa8" d="&#10;  M 136.16 54.94&#10;  L 133.14 56.02&#10;  Q 132.72 56.17 132.64 55.74&#10;  L 132.58 55.46&#10;  Q 132.42 54.71 133.13 54.44&#10;  L 139.61 51.97&#10;  Q 140.04 51.80 140.38 52.10&#10;  Q 140.68 52.36 140.68 52.76&#10;  Q 140.69 53.15 140.43 53.46&#10;  Q 139.40 54.68 138.17 55.78&#10;  Q 136.77 57.03 138.64 56.93&#10;  Q 139.62 56.88 140.41 56.19&#10;  A 1.09 1.07 31.0 0 1 141.35 55.96&#10;  Q 142.42 56.22 142.20 56.81&#10;  Q 142.05 57.20 141.66 57.36&#10;  Q 139.01 58.45 136.05 59.56&#10;  Q 132.53 60.87 134.60 57.77&#10;  Q 135.14 56.97 136.67 55.97&#10;  A 0.58 0.58 0.0 0 0 136.16 54.94&#10;  Z"/>
<path fill="#026fa8" d="&#10;  M 78.87 78.50&#10;  L 78.89 73.13&#10;  Q 78.89 72.35 78.12 72.36&#10;  L 69.72 72.46&#10;  Q 68.65 72.47 68.16 71.52&#10;  L 65.44 66.28&#10;  Q 64.96 65.36 65.98 65.19&#10;  L 71.97 64.18&#10;  A 1.41 1.38 65.2 0 1 73.29 64.68&#10;  L 78.31 70.89&#10;  Q 78.43 71.04 78.59 70.92&#10;  L 78.89 70.70&#10;  A 0.50 0.50 0.0 0 0 79.04 70.09&#10;  L 75.91 63.44&#10;  Q 75.41 62.38 76.10 61.43&#10;  L 79.43 56.93&#10;  Q 80.12 55.99 80.82 56.93&#10;  L 84.51 61.87&#10;  Q 84.87 62.36 84.61 62.91&#10;  L 81.17 69.98&#10;  Q 80.95 70.43 81.32 70.78&#10;  L 81.51 70.96&#10;  A 0.32 0.32 0.0 0 0 81.98 70.92&#10;  L 87.01 64.55&#10;  A 1.13 1.13 0.0 0 1 88.10 64.13&#10;  L 94.45 65.21&#10;  Q 95.28 65.35 94.89 66.09&#10;  L 91.93 71.74&#10;  Q 91.55 72.46 90.73 72.46&#10;  L 82.20 72.41&#10;  A 0.89 0.89 0.0 0 0 81.31 73.30&#10;  L 81.30 78.23&#10;  Q 81.30 80.27 82.70 78.80&#10;  C 84.01 77.42 85.42 76.23 87.44 76.23&#10;  Q 110.34 76.25 132.39 76.26&#10;  Q 132.88 76.26 132.86 76.75&#10;  L 132.66 82.68&#10;  Q 132.64 83.26 132.06 83.26&#10;  L 86.97 83.26&#10;  Q 86.03 83.26 85.34 83.88&#10;  L 81.61 87.24&#10;  A 1.92 1.92 0.0 0 1 79.11 87.29&#10;  L 74.67 83.63&#10;  A 1.64 1.58 64.0 0 0 73.65 83.26&#10;  L 28.50 83.26&#10;  Q 27.75 83.26 27.74 82.50&#10;  L 27.73 76.98&#10;  Q 27.73 76.24 28.47 76.24&#10;  Q 50.64 76.25 73.00 76.25&#10;  Q 75.27 76.25 77.77 78.93&#10;  Q 78.87 80.11 78.87 78.50&#10;  Z"/>
<path fill="#026fa8" d="&#10;  M 19.95 61.59&#10;  Q 22.37 61.33 20.16 60.31&#10;  Q 19.17 59.86 17.83 59.41&#10;  A 0.77 0.77 0.0 0 1 17.31 58.53&#10;  L 17.36 58.22&#10;  A 0.34 0.33 14.1 0 1 17.79 57.97&#10;  L 25.05 60.25&#10;  A 0.68 0.68 0.0 0 1 25.51 61.04&#10;  Q 25.29 62.05 24.12 62.13&#10;  Q 22.75 62.21 21.50 62.22&#10;  Q 20.99 62.22 20.89 62.73&#10;  Q 20.83 63.02 21.00 63.26&#10;  Q 21.23 63.58 21.63 63.67&#10;  Q 22.78 63.93 23.81 64.29&#10;  A 0.87 0.86 -78.1 0 1 24.38 65.17&#10;  L 24.35 65.47&#10;  A 0.45 0.44 10.8 0 1 23.77 65.86&#10;  L 16.44 63.57&#10;  Q 15.94 63.42 15.99 62.90&#10;  Q 16.02 62.55 16.27 62.29&#10;  Q 16.54 62.00 16.93 61.95&#10;  Q 18.49 61.74 19.95 61.59&#10;  Z"/>
<path fill="#026fa8" d="&#10;  M 144.1780 63.5759&#10;  A 4.52 3.62 -14.4 0 1 140.7003 68.2063&#10;  A 4.52 3.62 -14.4 0 1 135.4220 65.8241&#10;  A 4.52 3.62 -14.4 0 1 138.8997 61.1937&#10;  A 4.52 3.62 -14.4 0 1 144.1780 63.5759&#10;  Z&#10;  M 142.6785 64.0213&#10;  A 2.95 1.99 -13.5 0 0 139.3454 62.7750&#10;  A 2.95 1.99 -13.5 0 0 136.9415 65.3987&#10;  A 2.95 1.99 -13.5 0 0 140.2746 66.6450&#10;  A 2.95 1.99 -13.5 0 0 142.6785 64.0213&#10;  Z"/>
<path fill="#026fa8" d="&#10;  M 22.02 69.77&#10;  A 1.38 1.37 -35.0 0 0 21.63 71.97&#10;  L 23.04 73.42&#10;  Q 23.36 73.75 23.18 74.18&#10;  Q 23.12 74.33 22.98 74.43&#10;  Q 22.73 74.60 22.47 74.48&#10;  L 16.42 71.69&#10;  Q 12.87 70.06 16.64 69.05&#10;  Q 19.72 68.23 22.87 67.74&#10;  Q 24.70 67.46 23.41 68.79&#10;  Q 22.84 69.37 22.02 69.77&#10;  Z&#10;  M 20.2600 71.0283&#10;  A 1.24 0.77 20.7 0 0 19.3722 69.8697&#10;  A 1.24 0.77 20.7 0 0 17.9400 70.1517&#10;  A 1.24 0.77 20.7 0 0 18.8278 71.3103&#10;  A 1.24 0.77 20.7 0 0 20.2600 71.0283&#10;  Z"/>
<path fill="#026fa8" d="&#10;  M 138.24 76.12&#10;  L 137.37 76.19&#10;  A 0.31 0.31 0.0 0 1 137.04 75.90&#10;  L 136.70 71.46&#10;  A 0.31 0.31 0.0 0 1 136.99 71.13&#10;  L 144.88 70.52&#10;  A 0.31 0.31 0.0 0 1 145.21 70.80&#10;  L 145.31 71.63&#10;  A 0.31 0.31 0.0 0 1 145.03 71.97&#10;  L 138.57 72.56&#10;  A 0.31 0.31 0.0 0 0 138.29 72.90&#10;  L 138.53 75.79&#10;  A 0.31 0.31 0.0 0 1 138.24 76.12&#10;  Z"/>
<rect fill="#026fa8" x="-4.24" y="-0.81" transform="translate(18.77,76.97) rotate(0.9)" width="8.48" height="1.62" rx="0.69"/>
<path fill="#026fa8" d="&#10;  M 145.7787 81.5504&#10;  A 4.52 3.59 1.4 0 1 141.1723 85.0289&#10;  A 4.52 3.59 1.4 0 1 136.7413 81.3296&#10;  A 4.52 3.59 1.4 0 1 141.3477 77.8511&#10;  A 4.52 3.59 1.4 0 1 145.7787 81.5504&#10;  Z&#10;  M 144.2370 81.5543&#10;  A 2.96 1.92 2.6 0 0 141.3671 79.5020&#10;  A 2.96 1.92 2.6 0 0 138.3230 81.2857&#10;  A 2.96 1.92 2.6 0 0 141.1929 83.3380&#10;  A 2.96 1.92 2.6 0 0 144.2370 81.5543&#10;  Z"/>
<path fill="#026fa8" d="&#10;  M 21.68 82.88&#10;  L 21.53 80.37&#10;  A 0.31 0.31 0.0 0 1 21.67 80.09&#10;  L 22.50 79.55&#10;  A 0.31 0.31 0.0 0 1 22.98 79.80&#10;  L 23.16 84.40&#10;  A 0.31 0.31 0.0 0 1 22.87 84.72&#10;  L 14.97 85.20&#10;  A 0.31 0.31 0.0 0 1 14.64 84.83&#10;  L 14.81 84.04&#10;  A 0.31 0.31 0.0 0 1 15.09 83.80&#10;  L 21.40 83.21&#10;  A 0.31 0.31 0.0 0 0 21.68 82.88&#10;  Z"/>
<path fill="#026fa8" d="&#10;  M 22.07 90.49&#10;  Q 23.09 91.80 24.57 92.37&#10;  Q 25.15 92.60 24.81 93.11&#10;  L 24.60 93.43&#10;  Q 24.53 93.53 24.42 93.51&#10;  L 17.45 92.45&#10;  Q 13.89 91.91 16.94 90.01&#10;  Q 19.77 88.25 22.77 86.71&#10;  Q 23.20 86.49 23.63 86.66&#10;  Q 23.92 86.77 23.88 87.19&#10;  A 0.72 0.71 -20.4 0 1 23.71 87.56&#10;  L 22.11 89.34&#10;  A 0.90 0.90 0.0 0 0 22.07 90.49&#10;  Z&#10;  M 20.8642 90.2402&#10;  A 1.07 0.80 -23.1 0 0 19.5661 89.9241&#10;  A 1.07 0.80 -23.1 0 0 18.8958 91.0798&#10;  A 1.07 0.80 -23.1 0 0 20.1939 91.3959&#10;  A 1.07 0.80 -23.1 0 0 20.8642 90.2402&#10;  Z"/>
<path fill="#026fa8" d="&#10;  M 138.36 91.78&#10;  Q 138.87 91.63 139.22 91.16&#10;  Q 139.77 90.42 140.31 91.17&#10;  Q 140.52 91.47 140.53 91.84&#10;  Q 140.57 94.09 138.16 93.69&#10;  Q 137.05 93.51 136.31 93.01&#10;  Q 135.82 92.67 135.73 92.09&#10;  C 134.60 84.65 146.49 86.00 144.08 92.73&#10;  Q 143.49 94.37 141.69 94.14&#10;  Q 140.84 94.02 141.41 93.38&#10;  L 142.70 91.91&#10;  Q 143.13 91.42 142.95 90.79&#10;  C 142.26 88.37 138.04 87.85 137.11 90.45&#10;  A 1.03 1.02 -88.3 0 0 138.36 91.78&#10;  Z"/>
<path fill="#026fa8" d="&#10;  M 86.46 112.64&#10;  Q 85.57 112.81 85.57 113.72&#10;  L 85.59 118.59&#10;  A 1.01 1.00 84.6 0 0 86.78 119.58&#10;  Q 113.96 114.26 121.90 87.89&#10;  Q 121.95 87.73 122.12 87.73&#10;  L 131.44 87.72&#10;  Q 131.71 87.72 131.65 87.98&#10;  C 126.13 114.18 103.56 130.64 76.91 129.39&#10;  C 53.05 128.27 34.32 111.87 28.65 88.74&#10;  Q 28.41 87.73 29.44 87.73&#10;  L 37.56 87.71&#10;  Q 38.48 87.70 38.70 88.59&#10;  C 42.83 105.44 57.24 116.90 73.96 119.57&#10;  A 0.60 0.60 0.0 0 0 74.65 118.98&#10;  L 74.63 113.62&#10;  Q 74.63 112.83 73.85 112.68&#10;  Q 52.73 108.60 45.38 87.95&#10;  A 0.06 0.06 0.0 0 1 45.43 87.87&#10;  Q 50.30 87.59 54.87 87.76&#10;  Q 55.10 87.77 55.19 87.98&#10;  C 64.93 110.53 94.84 110.09 104.83 88.02&#10;  A 0.45 0.43 10.5 0 1 105.22 87.76&#10;  Q 110.28 87.60 114.85 87.88&#10;  A 0.05 0.05 0.0 0 1 114.89 87.95&#10;  Q 107.29 108.73 86.46 112.64&#10;  Z"/>
<path fill="#026fa8" d="&#10;  M 67.30 92.82&#10;  Q 66.80 93.07 66.20 93.02&#10;  Q 64.57 92.87 65.83 91.82&#10;  L 68.49 89.60&#10;  A 0.78 0.78 0.0 0 1 69.77 90.21&#10;  L 69.73 98.23&#10;  Q 69.72 99.38 68.67 98.92&#10;  L 68.32 98.77&#10;  A 0.68 0.68 0.0 0 1 67.92 98.15&#10;  L 67.99 93.25&#10;  Q 68.00 92.47 67.30 92.82&#10;  Z"/>
<path fill="#026fa8" d="&#10;  M 76.41 95.52&#10;  L 74.61 95.49&#10;  Q 74.10 95.48 73.75 95.13&#10;  C 71.99 93.33 72.45 89.73 75.40 89.54&#10;  Q 78.27 89.36 78.82 92.04&#10;  C 79.18 93.80 79.33 96.84 77.82 98.19&#10;  C 76.44 99.44 72.65 99.44 73.03 96.80&#10;  A 0.52 0.52 0.0 0 1 73.81 96.42&#10;  L 75.41 97.36&#10;  A 0.91 0.90 35.3 0 0 76.56 97.17&#10;  Q 76.90 96.77 77.00 96.25&#10;  Q 77.15 95.53 76.41 95.52&#10;  Z&#10;  M 76.0279 94.1333&#10;  A 1.56 1.21 81.6 0 0 76.9970 92.4132&#10;  A 1.56 1.21 81.6 0 0 75.5721 91.0467&#10;  A 1.56 1.21 81.6 0 0 74.6030 92.7668&#10;  A 1.56 1.21 81.6 0 0 76.0279 94.1333&#10;  Z"/>
<path fill="#026fa8" d="&#10;  M 83.02 96.99&#10;  L 81.48 97.08&#10;  A 1.14 1.14 0.0 0 1 80.44 95.33&#10;  Q 82.26 92.46 84.11 89.99&#10;  Q 84.64 89.28 85.51 89.46&#10;  Q 86.21 89.61 86.10 90.31&#10;  Q 85.61 93.36 86.89 95.98&#10;  Q 87.15 96.50 86.75 96.94&#10;  Q 86.03 97.74 85.66 98.70&#10;  A 0.50 0.49 40.4 0 1 84.77 98.77&#10;  L 84.04 97.53&#10;  Q 83.70 96.94 83.02 96.99&#10;  Z&#10;  M 83.3865 95.6754&#10;  A 1.18 0.83 103.9 0 0 84.4757 94.7294&#10;  A 1.18 0.83 103.9 0 0 83.9535 93.3846&#10;  A 1.18 0.83 103.9 0 0 82.8643 94.3306&#10;  A 1.18 0.83 103.9 0 0 83.3865 95.6754&#10;  Z"/>
<path fill="#026fa8" d="&#10;  M 91.07 97.34&#10;  A 0.83 0.83 0.0 0 0 92.08 97.22&#10;  Q 92.77 96.56 92.38 95.80&#10;  Q 92.10 95.25 91.51 95.44&#10;  C 87.32 96.81 86.99 88.06 92.33 89.68&#10;  C 96.44 90.92 95.16 101.55 89.53 98.62&#10;  A 1.50 1.49 -86.6 0 1 88.85 97.85&#10;  Q 88.41 96.71 89.03 96.49&#10;  Q 89.41 96.36 89.76 96.56&#10;  L 91.07 97.34&#10;  Z&#10;  M 91.6904 94.1572&#10;  A 1.58 1.29 78.3 0 0 92.6332 92.3484&#10;  A 1.58 1.29 78.3 0 0 91.0496 91.0628&#10;  A 1.58 1.29 78.3 0 0 90.1068 92.8716&#10;  A 1.58 1.29 78.3 0 0 91.6904 94.1572&#10;  Z"/>
<path fill="#026fa8" d="&#10;  M 19.88 103.17&#10;  A 0.82 0.82 0.0 0 1 18.83 102.69&#10;  L 18.12 100.82&#10;  A 3.61 3.30 -20.6 0 1 20.34 96.46&#10;  L 21.71 95.95&#10;  A 3.61 3.30 -20.6 0 1 26.25 97.77&#10;  L 26.95 99.64&#10;  A 0.82 0.82 0.0 0 1 26.47 100.70&#10;  L 19.88 103.17&#10;  Z&#10;  M 24.7996 98.0724&#10;  A 1.39 1.39 0.0 0 0 23.0094 97.2603&#10;  L 20.2761 98.2877&#10;  A 1.39 1.39 0.0 0 0 19.4641 100.0779&#10;  L 19.5204 100.2276&#10;  A 1.39 1.39 0.0 0 0 21.3106 101.0397&#10;  L 24.0439 100.0123&#10;  A 1.39 1.39 0.0 0 0 24.8559 98.2221&#10;  L 24.7996 98.0724&#10;  Z"/>
<path fill="#026fa8" d="&#10;  M 139.61 99.89&#10;  Q 140.00 100.82 140.97 101.46&#10;  Q 141.56 101.85 141.44 102.54&#10;  L 141.38 102.85&#10;  A 0.50 0.50 0.0 0 1 140.57 103.15&#10;  Q 139.36 102.15 138.42 100.87&#10;  C 137.34 99.41 135.59 99.12 133.99 98.51&#10;  A 0.47 0.47 0.0 0 1 133.70 97.96&#10;  L 133.79 97.63&#10;  Q 133.96 96.93 134.63 97.21&#10;  Q 138.01 98.66 142.40 97.18&#10;  A 0.41 0.41 0.0 0 1 142.93 97.65&#10;  L 142.85 98.04&#10;  Q 142.70 98.75 142.00 98.85&#10;  L 140.02 99.16&#10;  Q 139.34 99.26 139.61 99.89&#10;  Z"/>
<path fill="#026fa8" d="&#10;  M 119.45 121.30&#10;  L 120.25 122.77&#10;  Q 120.44 123.13 120.05 123.21&#10;  Q 119.39 123.35 118.78 122.96&#10;  A 1.66 1.65 -61.0 0 1 118.19 120.89&#10;  Q 119.01 119.11 120.60 118.33&#10;  Q 120.98 118.15 120.97 117.73&#10;  L 120.93 116.05&#10;  A 0.51 0.51 0.0 0 1 121.60 115.55&#10;  L 122.09 115.70&#10;  Q 122.75 115.91 122.76 116.60&#10;  Q 122.80 120.49 119.80 120.67&#10;  Q 119.13 120.71 119.45 121.30&#10;  Z"/>
<path fill="#026fa8" d="&#10;  M 124.33 119.94&#10;  Q 122.73 121.30 121.66 123.96&#10;  Q 121.08 125.41 121.21 123.86&#10;  Q 121.43 121.08 124.76 118.83&#10;  A 0.99 0.99 0.0 0 1 126.30 119.51&#10;  Q 126.38 120.05 126.14 120.54&#10;  Q 125.75 121.36 125.43 120.51&#10;  L 125.30 120.19&#10;  A 0.61 0.61 0.0 0 0 124.33 119.94&#10;  Z"/>
<path fill="#026fa8" d="&#10;  M 36.93 122.67&#10;  Q 35.97 121.92 35.91 120.80&#10;  A 0.46 0.45 -79.3 0 1 36.55 120.36&#10;  L 39.22 121.59&#10;  Q 40.06 121.98 40.66 121.27&#10;  Q 41.91 119.78 42.75 119.59&#10;  Q 45.21 119.03 43.38 120.82&#10;  Q 42.84 121.35 42.16 121.83&#10;  Q 41.58 122.24 41.90 122.87&#10;  Q 42.24 123.54 42.23 124.25&#10;  Q 42.22 125.16 41.50 124.61&#10;  Q 40.05 123.49 38.26 123.75&#10;  Q 37.68 123.84 37.54 124.41&#10;  Q 36.69 127.93 37.74 131.32&#10;  A 0.25 0.25 0.0 0 1 37.48 131.64&#10;  Q 36.72 131.57 36.20 130.89&#10;  Q 35.90 130.49 35.84 129.99&#10;  Q 35.60 128.10 36.49 126.12&#10;  A 0.84 0.84 0.0 0 0 35.51 124.96&#10;  Q 33.22 125.56 30.88 124.81&#10;  Q 30.82 124.79 30.83 124.73&#10;  L 30.88 124.47&#10;  A 0.42 0.42 0.0 0 1 31.34 124.13&#10;  Q 33.93 124.43 36.85 123.29&#10;  A 0.36 0.36 0.0 0 0 36.93 122.67&#10;  Z"/>
<path fill="#026fa8" d="&#10;  M 125.60 126.67&#10;  L 124.00 128.91&#10;  Q 123.89 129.06 123.73 128.98&#10;  L 123.50 128.87&#10;  Q 123.23 128.74 123.39 128.48&#10;  L 124.78 126.13&#10;  Q 125.06 125.68 124.83 125.19&#10;  Q 124.48 124.41 123.84 123.85&#10;  Q 123.39 123.46 123.68 122.93&#10;  Q 124.03 122.28 124.76 122.00&#10;  A 0.28 0.28 0.0 0 1 125.13 122.32&#10;  Q 124.87 123.43 125.58 124.27&#10;  Q 125.99 124.77 126.41 124.27&#10;  Q 127.05 123.51 127.98 123.17&#10;  Q 128.61 122.94 128.83 123.57&#10;  Q 128.90 123.75 128.81 123.92&#10;  Q 128.74 124.04 128.63 124.11&#10;  Q 128.01 124.47 127.54 125.00&#10;  A 1.06 1.05 53.6 0 0 127.37 126.16&#10;  Q 128.02 127.50 127.73 128.77&#10;  Q 127.56 129.56 126.80 129.79&#10;  Q 126.01 130.03 126.52 129.38&#10;  Q 127.67 127.92 126.42 126.61&#10;  Q 125.97 126.14 125.60 126.67&#10;  Z"/>
<ellipse fill="#026fa8" cx="0.00" cy="0.00" transform="translate(120.72,126.99) rotate(62.7)" rx="1.45" ry="0.77"/>
<path fill="#026fa8" d="&#10;  M 109.34 135.47&#10;  A 0.45 0.45 0.0 0 0 108.63 135.90&#10;  Q 108.94 137.92 107.93 139.87&#10;  Q 107.76 140.21 107.41 140.34&#10;  Q 107.29 140.39 107.15 140.39&#10;  Q 106.66 140.39 106.82 139.92&#10;  Q 107.51 137.99 107.53 136.02&#10;  Q 107.54 135.32 106.84 135.34&#10;  L 105.72 135.39&#10;  Q 104.46 135.43 105.35 134.55&#10;  L 106.37 133.53&#10;  Q 106.89 133.00 106.73 132.28&#10;  Q 106.36 130.71 105.18 129.28&#10;  A 0.80 0.80 0.0 0 1 105.24 128.19&#10;  Q 105.77 127.67 106.38 128.36&#10;  A 0.29 0.24 -85.3 0 1 106.43 128.43&#10;  L 107.47 130.69&#10;  A 0.73 0.72 66.6 0 0 108.39 131.06&#10;  Q 108.95 130.83 109.54 130.99&#10;  A 0.31 0.31 0.0 0 1 109.65 131.53&#10;  Q 108.59 132.39 108.13 133.59&#10;  A 0.96 0.95 -72.4 0 0 108.78 134.86&#10;  Q 112.07 135.70 115.28 135.21&#10;  Q 115.85 135.13 115.71 135.69&#10;  C 114.95 138.90 110.90 136.59 109.34 135.47&#10;  Z"/>
<path fill="#026fa8" d="&#10;  M 54.84 134.79&#10;  Q 53.75 134.57 53.20 133.58&#10;  Q 52.92 133.08 53.46 132.89&#10;  Q 55.10 132.31 54.71 130.64&#10;  Q 54.58 130.12 55.08 129.91&#10;  Q 55.47 129.73 55.92 129.75&#10;  Q 56.52 129.78 57.10 129.62&#10;  Q 57.84 129.41 58.33 128.79&#10;  A 0.53 0.53 0.0 0 1 59.16 128.78&#10;  Q 59.93 129.68 60.18 130.75&#10;  Q 60.38 131.59 59.53 131.44&#10;  C 58.35 131.24 57.05 131.20 56.21 132.21&#10;  A 0.34 0.34 0.0 0 0 56.37 132.76&#10;  Q 57.02 132.96 57.38 133.55&#10;  A 0.45 0.44 -30.9 0 1 57.22 134.16&#10;  C 55.39 135.25 56.62 137.13 54.03 138.02&#10;  A 0.91 0.91 0.0 0 0 53.81 139.63&#10;  L 55.89 141.09&#10;  Q 57.11 141.95 55.64 142.16&#10;  Q 54.76 142.30 53.98 141.77&#10;  Q 53.32 141.33 52.86 140.72&#10;  Q 50.94 138.20 48.36 136.68&#10;  Q 47.92 136.42 48.19 135.98&#10;  L 50.79 131.95&#10;  A 0.44 0.42 -66.2 0 1 51.25 131.76&#10;  Q 51.86 131.90 52.18 132.51&#10;  Q 52.42 132.95 51.93 133.06&#10;  Q 50.20 133.45 49.79 135.16&#10;  Q 49.65 135.74 49.96 136.26&#10;  Q 50.71 137.55 51.90 138.29&#10;  Q 53.01 138.98 52.94 137.68&#10;  Q 52.92 137.22 52.64 136.84&#10;  A 0.48 0.47 68.1 0 1 52.96 136.08&#10;  Q 54.08 135.96 54.95 135.21&#10;  Q 55.33 134.88 54.84 134.79&#10;  Z"/>
<path fill="#026fa8" d="&#10;  M 74.30 137.90&#10;  Q 74.87 137.67 74.88 137.00&#10;  C 74.89 136.27 74.35 135.74 74.31 135.01&#10;  A 0.70 0.70 0.0 0 1 74.65 134.36&#10;  Q 75.98 133.60 77.27 133.66&#10;  A 1.43 1.43 0.0 0 1 78.44 135.81&#10;  Q 77.38 137.61 75.69 138.78&#10;  Q 75.26 139.08 75.27 139.60&#10;  Q 75.27 140.20 75.58 140.74&#10;  Q 76.09 141.66 75.07 141.91&#10;  Q 74.42 142.06 74.09 142.59&#10;  Q 73.77 143.12 74.37 143.28&#10;  L 76.40 143.84&#10;  Q 76.88 143.98 76.94 144.48&#10;  Q 76.96 144.67 76.83 144.80&#10;  Q 76.64 144.99 76.38 144.96&#10;  L 71.58 144.33&#10;  A 0.24 0.24 0.0 0 1 71.44 143.92&#10;  Q 72.98 142.44 73.97 140.46&#10;  Q 74.33 139.74 73.56 139.51&#10;  L 72.69 139.24&#10;  A 1.06 1.06 0.0 0 1 72.02 137.81&#10;  Q 72.62 136.40 73.93 137.23&#10;  Q 74.07 137.31 74.04 137.48&#10;  Q 74.02 137.61 74.04 137.74&#10;  Q 74.07 137.99 74.30 137.90&#10;  Z&#10;  M 78.0424 135.5895&#10;  A 1.11 0.96 6.7 0 0 77.0520 134.5066&#10;  A 1.11 0.96 6.7 0 0 75.8376 135.3305&#10;  A 1.11 0.96 6.7 0 0 76.8280 136.4134&#10;  A 1.11 0.96 6.7 0 0 78.0424 135.5895&#10;  Z"/>
<path fill="#026fa8" d="&#10;  M 69.29 135.53&#10;  A 0.23 0.23 0.0 0 1 69.41 135.22&#10;  L 69.72 135.09&#10;  A 2.65 0.87 -23.2 0 1 72.50 134.85&#10;  L 72.60 135.09&#10;  A 2.65 0.87 -23.2 0 1 70.51 136.93&#10;  L 70.20 137.06&#10;  A 0.23 0.23 0.0 0 1 69.89 136.94&#10;  L 69.29 135.53&#10;  Z"/>
<path fill="#026fa8" d="&#10;  M 93.28 137.96&#10;  A 0.42 0.42 0.0 0 1 92.95 138.45&#10;  L 92.50 138.53&#10;  A 2.54 1.15 -10.8 0 1 89.79 137.88&#10;  L 89.75 137.70&#10;  A 2.54 1.15 -10.8 0 1 92.03 136.10&#10;  L 92.48 136.01&#10;  A 0.42 0.42 0.0 0 1 92.98 136.34&#10;  L 93.28 137.96&#10;  Z"/>
<path fill="#026fa8" d="&#10;  M 69.03 140.73&#10;  L 67.89 139.78&#10;  A 0.62 0.62 0.0 0 1 68.01 138.75&#10;  L 69.22 138.15&#10;  Q 69.90 137.82 70.15 138.54&#10;  L 70.71 140.15&#10;  Q 70.87 140.60 70.63 141.02&#10;  L 69.06 143.67&#10;  A 0.71 0.70 20.8 0 1 68.33 143.99&#10;  L 68.00 143.93&#10;  A 0.40 0.39 -76.9 0 1 67.70 143.44&#10;  Q 67.98 142.33 68.99 141.66&#10;  Q 69.64 141.23 69.03 140.73&#10;  Z"/>
<path fill="#026fa8" d="&#10;  M 87.22 141.04&#10;  A 0.25 0.25 0.0 0 1 87.41 140.74&#10;  L 91.64 139.80&#10;  A 4.14 0.61 -12.6 0 1 95.81 139.49&#10;  L 95.98 140.23&#10;  A 4.14 0.61 -12.6 0 1 92.07 141.73&#10;  L 87.84 142.67&#10;  A 0.25 0.25 0.0 0 1 87.55 142.48&#10;  L 87.22 141.04&#10;  Z"/>
</svg>