<svg xmlns="http://www.w3.org/2000/svg" version="1.1" viewBox="0.00 0.00 67.00 70.00" width="67.00" height="70.00">
<path fill="#002d71" d="&#10;  M 32.59 0.73&#10;  Q 47.59 0.73 63.00 3.99&#10;  Q 64.38 4.29 64.29 5.87&#10;  C 63.99 11.71 64.17 16.63 63.55 20.72&#10;  Q 63.47 21.21 62.98 21.11&#10;  Q 47.03 17.98 32.59 17.98&#10;  Q 18.15 17.98 2.20 21.12&#10;  Q 1.71 21.22 1.63 20.73&#10;  C 1.01 16.64 1.19 11.72 0.89 5.88&#10;  Q 0.80 4.30 2.18 4.00&#10;  Q 17.59 0.73 32.59 0.73&#10;  Z&#10;  M 32.59 15.64&#10;  Q 46.03 15.65 55.39 17.50&#10;  A 0.51 0.51 0.0 0 0 55.96 16.79&#10;  Q 55.69 16.15 51.92 7.86&#10;  Q 51.25 6.39 50.60 5.70&#10;  C 47.70 2.64 40.18 3.58 35.45 4.55&#10;  Q 35.20 4.60 34.06 5.03&#10;  Q 33.32 5.30 32.59 5.30&#10;  Q 31.87 5.30 31.13 5.03&#10;  Q 29.99 4.60 29.74 4.55&#10;  C 25.01 3.57 17.49 2.62 14.58 5.68&#10;  Q 13.93 6.36 13.26 7.83&#10;  Q 9.48 16.12 9.21 16.76&#10;  A 0.51 0.51 0.0 0 0 9.78 17.47&#10;  Q 19.14 15.63 32.59 15.64&#10;  Z"/>
<path fill="#002d71" d="&#10;  M 51.13 12.09&#10;  L 49.04 6.23&#10;  Q 48.95 5.99 49.19 5.90&#10;  L 49.62 5.75&#10;  Q 49.79 5.69 49.87 5.86&#10;  Q 52.01 10.40 53.70 15.30&#10;  A 0.31 0.31 0.0 0 1 53.37 15.71&#10;  Q 43.23 14.45 35.20 14.30&#10;  Q 31.86 14.23 35.11 13.43&#10;  Q 42.96 11.49 50.70 12.61&#10;  A 0.40 0.40 0.0 0 0 51.13 12.09&#10;  Z"/>
<path fill="#002d71" d="&#10;  M 14.59 12.53&#10;  Q 23.21 11.54 31.34 13.79&#10;  Q 31.62 13.87 31.50 14.13&#10;  Q 31.44 14.26 31.31 14.32&#10;  Q 31.25 14.35 31.17 14.35&#10;  Q 21.27 14.32 11.63 15.78&#10;  A 0.28 0.28 0.0 0 1 11.32 15.41&#10;  Q 13.20 10.20 14.32 7.57&#10;  Q 14.75 6.55 15.46 6.08&#10;  Q 16.13 5.63 15.87 6.39&#10;  Q 14.48 10.56 14.15 12.04&#10;  Q 14.03 12.59 14.59 12.53&#10;  Z"/>
<path fill="#002d71" d="&#10;  M 30.78 68.12&#10;  C 14.90 58.65 4.94 42.69 2.12 24.49&#10;  Q 2.04 23.95 2.57 23.84&#10;  Q 16.57 20.96 30.68 20.81&#10;  Q 31.19 20.80 31.19 21.31&#10;  L 31.19 67.89&#10;  A 0.27 0.27 0.0 0 1 30.78 68.12&#10;  Z&#10;  M 29.30 36.83&#10;  A 10.64 10.64 0.0 0 0 18.66 26.19&#10;  A 10.64 10.64 0.0 0 0 8.02 36.83&#10;  A 10.64 10.64 0.0 0 0 18.66 47.47&#10;  A 10.64 10.64 0.0 0 0 29.30 36.83&#10;  Z"/>
<path fill="#002d71" d="&#10;  M 45.65 35.27&#10;  L 45.65 48.41&#10;  A 0.14 0.13 17.0 0 1 45.44 48.52&#10;  L 40.05 45.00&#10;  A 0.54 0.54 0.0 0 1 39.82 44.56&#10;  L 39.82 31.60&#10;  Q 39.82 30.92 39.22 30.57&#10;  L 34.50 27.85&#10;  Q 33.94 27.52 33.94 26.87&#10;  L 33.94 21.06&#10;  Q 33.94 20.86 34.14 20.86&#10;  L 39.48 20.86&#10;  A 0.35 0.34 90.0 0 1 39.82 21.21&#10;  L 39.82 30.90&#10;  Q 39.82 31.18 40.05 31.33&#10;  L 45.51 34.97&#10;  A 0.09 0.09 0.0 0 0 45.65 34.89&#10;  L 45.65 21.86&#10;  A 0.62 0.62 0.0 0 1 46.39 21.25&#10;  L 51.16 22.13&#10;  Q 51.51 22.19 51.51 22.55&#10;  L 51.51 38.60&#10;  A 1.01 1.00 -75.0 0 0 52.01 39.47&#10;  L 56.55 42.09&#10;  A 0.55 0.54 15.0 0 0 57.37 41.62&#10;  L 57.37 23.25&#10;  Q 57.37 22.85 57.75 22.92&#10;  L 62.91 23.88&#10;  Q 63.15 23.92 63.11 24.15&#10;  Q 59.91 44.40 46.16 58.89&#10;  Q 45.64 59.43 45.64 58.68&#10;  L 45.64 49.30&#10;  Q 45.64 48.61 46.21 49.00&#10;  L 50.55 51.99&#10;  A 0.63 0.63 0.0 0 0 51.53 51.47&#10;  L 51.53 39.27&#10;  Q 51.53 38.96 51.26 38.78&#10;  L 45.82 35.18&#10;  Q 45.65 35.07 45.65 35.27&#10;  Z"/>
<path fill="#002d71" d="&#10;  M 13.83 29.63&#10;  L 13.68 29.20&#10;  Q 13.50 28.70 13.91 28.36&#10;  Q 14.51 27.87 16.16 27.38&#10;  Q 16.80 27.19 16.52 27.79&#10;  Q 15.83 29.25 14.82 29.58&#10;  Q 14.31 29.75 14.34 30.28&#10;  Q 14.39 31.51 13.94 32.36&#10;  Q 13.71 32.81 13.21 32.71&#10;  L 11.21 32.34&#10;  A 0.87 0.87 0.0 0 1 10.80 30.82&#10;  Q 12.09 29.72 13.44 30.06&#10;  Q 14.03 30.20 13.83 29.63&#10;  Z"/>
<path fill="#002d71" d="&#10;  M 23.45 29.18&#10;  L 23.33 29.80&#10;  A 0.36 0.36 0.0 0 1 22.73 29.99&#10;  L 21.27 28.54&#10;  Q 19.51 26.80 21.81 27.62&#10;  L 23.31 28.15&#10;  Q 23.65 28.27 23.67 28.56&#10;  Q 23.69 28.75 23.55 28.94&#10;  Q 23.47 29.05 23.45 29.18&#10;  Z"/>
<path fill="#002d71" d="&#10;  M 19.33 28.12&#10;  Q 19.41 28.13 20.69 29.25&#10;  Q 21.19 29.69 20.56 29.91&#10;  Q 20.25 30.02 19.61 29.87&#10;  Q 18.62 29.65 18.96 28.33&#10;  A 0.41 0.28 5.2 0 1 19.33 28.12&#10;  Z"/>
<path fill="#002d71" d="&#10;  M 16.62 29.22&#10;  Q 16.86 28.72 17.17 28.41&#10;  Q 17.64 27.93 17.87 28.56&#10;  L 18.11 29.24&#10;  A 0.49 0.49 0.0 0 1 17.72 29.89&#10;  Q 16.56 30.06 16.57 29.42&#10;  A 0.49 0.38 -38.0 0 1 16.62 29.22&#10;  Z"/>
<path fill="#002d71" d="&#10;  M 23.76 32.77&#10;  A 0.44 0.44 0.0 0 1 23.23 32.44&#10;  L 23.15 32.09&#10;  A 1.92 1.73 76.8 0 1 24.39 29.82&#10;  L 24.55 29.79&#10;  A 1.92 1.73 76.8 0 1 26.67 31.26&#10;  L 26.75 31.61&#10;  A 0.44 0.44 0.0 0 1 26.42 32.14&#10;  L 23.76 32.77&#10;  Z"/>
<rect fill="#002d71" x="-1.59" y="-1.22" transform="translate(16.60,32.14) rotate(2.4)" width="3.18" height="2.44" rx="0.84"/>
<rect fill="#002d71" x="-1.57" y="-1.20" transform="translate(20.67,32.11) rotate(-5.1)" width="3.14" height="2.40" rx="0.71"/>
<path fill="#002d71" d="&#10;  M 9.40 33.57&#10;  A 0.71 0.71 0.0 0 1 10.21 32.98&#10;  L 10.93 33.10&#10;  A 2.60 0.98 9.1 0 1 13.34 34.48&#10;  L 13.13 35.84&#10;  A 2.60 0.98 9.1 0 1 10.40 36.40&#10;  L 9.68 36.28&#10;  A 0.71 0.71 0.0 0 1 9.09 35.47&#10;  L 9.40 33.57&#10;  Z"/>
<path fill="#002d71" d="&#10;  M 24.60 36.39&#10;  A 0.61 0.61 0.0 0 1 23.97 35.79&#10;  L 23.95 34.88&#10;  A 2.02 1.80 -1.2 0 1 25.94 33.04&#10;  L 26.20 33.04&#10;  A 2.02 1.80 -1.2 0 1 28.25 34.79&#10;  L 28.27 35.70&#10;  A 0.61 0.61 0.0 0 1 27.67 36.33&#10;  L 24.60 36.39&#10;  Z"/>
<rect fill="#002d71" x="-1.96" y="-1.10" transform="translate(21.13,35.25) rotate(-1.8)" width="3.92" height="2.20" rx="0.60"/>
<rect fill="#002d71" x="-2.03" y="-1.08" transform="translate(16.11,35.28) rotate(4.6)" width="4.06" height="2.16" rx="0.78"/>
<path fill="#002d71" d="&#10;  M 13.10 37.80&#10;  L 13.39 39.09&#10;  A 0.74 0.74 0.0 0 1 12.90 39.95&#10;  L 10.50 40.75&#10;  A 0.74 0.74 0.0 0 1 9.55 40.22&#10;  L 9.05 38.05&#10;  A 0.74 0.74 0.0 0 1 9.79 37.15&#10;  L 12.40 37.21&#10;  A 0.74 0.74 0.0 0 1 13.10 37.80&#10;  Z"/>
<rect fill="#002d71" x="-1.95" y="-1.12" transform="translate(16.16,38.29) rotate(-0.9)" width="3.90" height="2.24" rx="0.70"/>
<rect fill="#002d71" x="-1.93" y="-1.14" transform="translate(21.12,38.28) rotate(7.3)" width="3.86" height="2.28" rx="0.63"/>
<path fill="#002d71" d="&#10;  M 27.93 40.16&#10;  A 0.63 0.63 0.0 0 1 27.21 40.69&#10;  L 26.74 40.62&#10;  A 3.01 0.87 8.5 0 1 23.89 39.32&#10;  L 24.14 37.65&#10;  A 3.01 0.87 8.5 0 1 27.24 37.24&#10;  L 27.72 37.31&#10;  A 0.63 0.63 0.0 0 1 28.25 38.03&#10;  L 27.93 40.16&#10;  Z"/>
<rect fill="#002d71" x="-1.50" y="-1.29" transform="translate(16.63,41.56) rotate(-2.3)" width="3.00" height="2.58" rx="0.82"/>
<path fill="#002d71" d="&#10;  M 21.97 40.43&#10;  A 0.38 0.38 0.0 0 1 22.31 40.85&#10;  L 22.23 41.57&#10;  A 1.57 1.14 -83.7 0 1 20.92 43.01&#10;  L 20.05 42.91&#10;  A 1.57 1.14 -83.7 0 1 19.08 41.23&#10;  L 19.16 40.50&#10;  A 0.38 0.38 0.0 0 1 19.58 40.17&#10;  L 21.97 40.43&#10;  Z"/>
<path fill="#002d71" d="&#10;  M 13.77 43.09&#10;  Q 12.67 43.91 14.04 43.89&#10;  Q 15.55 43.88 16.30 45.41&#10;  Q 16.56 45.93 16.30 45.95&#10;  A 2.70 1.50 -11.5 0 1 13.99 45.22&#10;  Q 13.30 44.10 11.86 43.55&#10;  Q 10.53 43.05 10.65 42.60&#10;  A 2.22 2.22 0.0 0 1 14.15 41.41&#10;  Q 14.38 41.59 14.37 42.45&#10;  Q 14.37 42.78 14.07 42.93&#10;  Q 13.81 43.07 13.77 43.09&#10;  Z"/>
<path fill="#002d71" d="&#10;  M 24.22 44.02&#10;  Q 24.52 43.40 23.40 43.20&#10;  Q 22.89 43.11 22.89 42.59&#10;  Q 22.88 41.81 23.45 41.24&#10;  Q 23.78 40.91 24.23 40.99&#10;  L 26.17 41.35&#10;  Q 26.70 41.45 26.62 41.98&#10;  Q 26.33 43.85 24.22 44.02&#10;  Z"/>
<path fill="#002d71" d="&#10;  M 33.93 67.74&#10;  L 33.89 41.55&#10;  A 0.40 0.40 0.0 0 1 34.51 41.22&#10;  L 39.62 44.67&#10;  A 0.40 0.40 0.0 0 1 39.80 45.00&#10;  L 39.83 64.28&#10;  A 0.40 0.40 0.0 0 1 39.65 64.61&#10;  L 34.55 68.07&#10;  A 0.40 0.40 0.0 0 1 33.93 67.74&#10;  Z"/>
<ellipse fill="#002d71" cx="0.00" cy="0.00" transform="translate(17.46,44.57) rotate(81.6)" rx="0.89" ry="0.67"/>
<path fill="#002d71" d="&#10;  M 19.23 44.11&#10;  Q 19.44 43.83 19.79 43.85&#10;  Q 20.90 43.93 20.34 45.01&#10;  A 0.82 0.79 -76.9 0 1 19.64 45.46&#10;  Q 18.11 45.52 19.23 44.11&#10;  Z"/>
<path fill="#002d71" d="&#10;  M 24.22 44.02&#10;  Q 23.36 45.89 21.44 46.07&#10;  Q 20.90 46.12 21.03 45.59&#10;  Q 21.56 43.58 24.22 44.02&#10;  Z"/>
</svg>